<svg version="1.1" id="Layer_1" xmlns="http://www.w3.org/2000/svg" xmlns:xlink="http://www.w3.org/1999/xlink" x="0px" y="0px"
	 width="100%" viewBox="0 0 2400 713" enable-background="new 0 0 2400 713" xml:space="preserve">
<path fill="#000000" opacity="1.000000" stroke="none" 
	d="
M2401.000000,604.000000 
	C2401.000000,640.660706 2401.000000,677.321411 2401.000000,713.953796 
	C1601.000000,713.953796 801.000000,713.953796 1.000000,713.953796 
	C1.000000,705.242371 1.000000,696.577087 1.468657,687.455933 
	C63.267418,687.000000 124.597740,686.936584 185.927155,687.140381 
	C190.085846,687.154236 191.779236,685.479248 192.954025,682.237549 
	C202.175964,656.789917 211.338120,631.320618 220.588104,605.883240 
	C233.176834,571.264343 245.808167,536.660828 258.456970,502.063782 
	C268.080383,475.741791 277.765869,449.442505 287.411591,423.128662 
	C293.785645,405.739899 300.138245,388.343262 306.771301,370.209747 
	C307.783386,371.628082 308.599976,372.392487 308.955780,373.331512 
	C311.679962,380.521271 314.359558,387.728760 316.969116,394.960999 
	C328.656281,427.351135 340.577148,459.660614 351.862030,492.190582 
	C356.679077,506.076263 371.271149,515.076355 384.006012,515.053162 
	C447.827789,514.937073 511.649902,515.000000 575.709961,515.000000 
	C575.200806,515.704956 574.818970,516.233643 574.224976,517.056030 
	C581.375671,516.711914 587.682922,514.759827 593.519958,511.001373 
	C603.412109,504.631958 607.725586,494.816528 611.499756,484.194122 
	C624.207581,448.427185 637.385437,412.827240 650.383545,377.163422 
	C663.381653,341.499603 676.379761,305.835815 689.377869,270.171997 
	C702.375916,234.508301 715.356445,198.838226 728.377747,163.182999 
	C738.376587,135.803604 748.410706,108.437050 758.459839,81.076057 
	C764.921448,63.482586 771.535889,45.944553 777.890686,28.312782 
	C781.143860,19.286636 783.976990,10.109103 787.000000,1.000002 
	C1324.882446,1.000000 1862.764771,1.000000 2401.000000,1.000000 
	C2401.000000,91.029060 2401.000000,181.058578 2400.617188,271.890930 
	C2392.556885,272.129150 2384.886963,271.408691 2377.199951,271.032593 
	C2361.369629,270.258057 2345.535156,269.464600 2329.692627,269.065491 
	C2317.031738,268.746582 2304.354980,268.864777 2291.688232,269.032013 
	C2274.806396,269.254852 2258.922119,273.801056 2243.251221,279.867126 
	C2218.437744,289.471985 2199.903809,305.655273 2187.886719,329.462311 
	C2179.131836,346.806671 2175.310547,365.423798 2174.236816,384.488464 
	C2173.603027,395.746490 2175.112793,407.154633 2176.037842,418.464294 
	C2177.518311,436.564850 2183.643066,453.199493 2192.435547,468.993561 
	C2198.420410,479.744781 2206.083252,489.270844 2215.620117,496.714996 
	C2223.631348,502.968597 2232.592529,508.839447 2242.082275,512.197510 
	C2264.093018,519.986267 2286.902100,524.642639 2310.557373,523.013000 
	C2321.937500,522.228943 2333.327393,521.582092 2344.991455,520.855713 
	C2344.991455,555.715088 2344.991455,591.117126 2344.991455,626.846069 
	C2359.393555,620.776245 2373.391357,614.817383 2387.443359,608.989380 
	C2391.887695,607.146240 2396.477051,605.653259 2401.000000,604.000000 
M1046.532471,517.000000 
	C1067.292603,517.000000 1088.052856,517.000000 1108.695557,517.000000 
	C1108.695557,407.994049 1108.695557,299.589050 1108.695557,191.308701 
	C1090.650146,191.308701 1072.910645,191.308701 1054.813965,191.308701 
	C1054.813965,274.342194 1054.813965,357.067505 1054.813965,440.602539 
	C1053.485718,439.582062 1052.517944,439.183838 1052.103027,438.466064 
	C1048.162720,431.650482 1044.345581,424.763885 1040.436890,417.929871 
	C1031.499023,402.302795 1022.597351,386.654297 1013.555481,371.087433 
	C1002.333557,351.767395 990.923706,332.556549 979.708862,313.232452 
	C969.300537,295.298065 959.101746,277.242157 948.702209,259.302673 
	C936.125427,237.607666 923.386841,216.006378 910.859131,194.283325 
	C909.436401,191.816345 907.961914,190.904495 905.109070,190.929199 
	C888.443665,191.073578 871.776489,191.000000 855.109863,191.000000 
	C849.166504,191.000000 843.223206,191.000000 837.254089,191.000000 
	C837.254089,299.905029 837.254089,408.309845 837.254089,516.741577 
	C854.581543,516.741577 871.653564,516.741577 889.304871,516.741577 
	C889.304871,432.685547 889.304871,348.886688 889.304871,265.087830 
	C889.722534,264.961670 890.140198,264.835541 890.557800,264.709381 
	C891.712769,266.883789 892.802979,269.095551 894.032593,271.226868 
	C910.343994,299.497864 926.699829,327.743256 942.993347,356.024536 
	C957.358276,380.958435 971.682129,405.916107 985.981750,430.887543 
	C1000.678772,456.552979 1015.627014,482.082764 1029.791382,508.039673 
	C1033.588135,514.997559 1037.631470,518.658508 1046.532471,517.000000 
M1867.000000,320.500000 
	C1867.000000,270.743256 1867.000000,220.986511 1867.000000,171.282257 
	C1848.366577,171.282257 1830.296021,171.282257 1811.855591,171.282257 
	C1811.855591,203.984421 1811.855591,236.406113 1811.855591,269.134216 
	C1807.899048,268.728729 1804.346436,268.081512 1800.788208,268.049957 
	C1786.954102,267.927216 1773.105225,267.635590 1759.287476,268.127716 
	C1750.027588,268.457489 1740.687500,269.366638 1731.599976,271.132233 
	C1710.690674,275.194672 1692.395386,284.906952 1677.070923,299.617401 
	C1668.280762,308.055267 1661.431885,318.178375 1655.973633,329.163544 
	C1647.749146,345.715515 1643.397461,363.444977 1642.238892,381.659576 
	C1641.207153,397.877380 1641.192017,414.253601 1644.954468,430.360260 
	C1650.153320,452.616302 1660.135742,472.228485 1676.707520,488.089630 
	C1687.647705,498.560699 1700.287109,506.521881 1714.462036,512.190552 
	C1730.880859,518.756592 1747.838379,522.383545 1765.438232,522.942688 
	C1775.417847,523.259827 1785.424683,523.261169 1795.403198,522.926697 
	C1805.415405,522.591125 1815.477783,522.186157 1825.392212,520.865967 
	C1839.281616,519.016418 1853.054565,516.291565 1867.000000,513.920288 
	C1867.000000,449.448273 1867.000000,385.474152 1867.000000,320.500000 
M1255.503174,269.000000 
	C1225.744995,269.400208 1196.270874,272.395905 1167.310303,278.245911 
	C1167.310303,292.758850 1167.310303,306.845490 1167.310303,321.378601 
	C1169.914551,320.950775 1172.166626,320.635559 1174.396362,320.204742 
	C1183.271484,318.489960 1192.081299,316.304718 1201.024048,315.104980 
	C1213.969482,313.368286 1226.986816,311.575592 1240.014404,311.190155 
	C1257.099365,310.684692 1274.328369,309.745178 1291.202148,314.000702 
	C1299.264526,316.034027 1306.716553,319.161407 1309.939331,327.590210 
	C1314.404053,339.267426 1314.091187,351.527222 1313.954102,364.143250 
	C1304.687012,363.404053 1295.894409,362.241699 1287.084839,362.093475 
	C1267.123901,361.757507 1247.196411,362.079559 1227.327759,364.876343 
	C1211.852905,367.054657 1197.104004,370.867920 1183.545654,378.838654 
	C1170.452515,386.535889 1161.003418,397.247314 1156.010864,411.667664 
	C1149.823730,429.538330 1150.416870,447.883392 1154.213989,465.898468 
	C1159.240967,489.748535 1174.179443,505.911530 1197.263550,513.522339 
	C1220.759033,521.268799 1245.023315,523.135437 1269.744019,521.143860 
	C1287.020142,519.752075 1304.399292,519.594360 1321.736938,519.021851 
	C1337.406738,518.504395 1353.145508,520.088806 1369.000000,517.641907 
	C1369.000000,515.650635 1369.000000,513.840881 1369.000000,512.031067 
	C1369.000000,460.209534 1369.243530,408.386017 1368.817505,356.567993 
	C1368.718994,344.579742 1367.354736,332.381683 1364.741455,320.689484 
	C1361.396606,305.722473 1352.935181,293.550049 1339.766113,284.941132 
	C1326.728271,276.418030 1312.060547,272.806152 1296.983521,271.167664 
	C1283.569214,269.709900 1270.001221,269.667236 1255.503174,269.000000 
M1989.572021,269.999969 
	C1968.674194,272.472107 1947.776367,274.944244 1927.223633,277.375549 
	C1927.223633,292.798492 1927.223633,306.750214 1927.223633,321.218811 
	C1930.046875,320.924896 1932.635742,320.792450 1935.175903,320.367737 
	C1947.616699,318.287720 1960.006470,315.861786 1972.490234,314.094238 
	C1980.754028,312.924133 1989.164917,312.835175 1997.476929,311.952332 
	C2015.911499,309.994324 2034.278076,310.240875 2052.422363,314.113190 
	C2060.297363,315.793823 2067.582275,319.578094 2070.718994,327.575623 
	C2075.318604,339.302704 2073.999756,351.692657 2073.866211,364.095612 
	C2064.031982,363.372498 2054.705078,362.233490 2045.364868,362.115021 
	C2033.785400,361.968140 2022.153931,362.171692 2010.620239,363.129211 
	C1997.176880,364.245270 1983.662476,365.577362 1970.458984,368.216980 
	C1956.281006,371.051331 1943.195679,377.226349 1932.435181,387.179932 
	C1918.701050,399.884186 1912.769775,416.439789 1912.241699,434.599213 
	C1911.925781,445.462708 1912.842041,456.658905 1915.244995,467.242249 
	C1920.110352,488.670197 1933.414795,503.516296 1953.872437,512.080505 
	C1972.103882,519.712708 1991.375610,521.216125 2010.653198,521.788818 
	C2024.626099,522.203857 2038.651367,520.496948 2052.663330,520.044739 
	C2068.909424,519.520325 2085.165527,519.270874 2101.419189,519.024597 
	C2110.462158,518.887573 2119.509033,519.000000 2129.000000,519.000000 
	C2129.000000,515.940735 2129.000000,514.143860 2129.000000,512.347046 
	C2129.000000,458.347809 2129.137451,404.347870 2128.865234,350.350006 
	C2128.819580,341.280090 2127.897705,332.009491 2125.837158,323.192352 
	C2118.969971,293.806824 2101.690430,281.218567 2074.460693,274.208252 
	C2055.673340,269.371460 2036.182251,268.850037 2016.794189,269.041840 
	C2008.039307,269.128448 1999.289062,269.666656 1989.572021,269.999969 
M1582.668701,271.997467 
	C1567.850342,269.998352 1553.083252,267.118164 1538.198975,266.252594 
	C1523.854736,265.418488 1509.389526,266.666351 1494.977417,266.997681 
	C1481.054321,267.317780 1467.761230,270.763763 1455.072510,276.121368 
	C1440.360107,282.333374 1428.338135,291.877594 1420.838501,306.506348 
	C1414.769531,318.344696 1413.376953,330.769714 1413.856567,343.916840 
	C1414.704834,367.166534 1426.322632,383.366119 1445.544067,394.792053 
	C1456.612061,401.371246 1468.783447,405.462952 1481.243164,408.689362 
	C1491.634399,411.380157 1502.050415,414.024658 1512.307861,417.170502 
	C1522.694702,420.355927 1533.055176,423.745667 1543.128662,427.789795 
	C1549.431519,430.320099 1554.098389,435.199646 1555.996826,442.106384 
	C1560.302979,457.772675 1550.974487,465.745789 1540.042725,470.857391 
	C1525.645752,477.589386 1509.907959,478.445221 1494.341797,478.840942 
	C1485.697754,479.060669 1476.959351,478.064178 1468.359497,476.903198 
	C1456.666382,475.324585 1445.039307,473.202545 1433.435791,471.035950 
	C1428.012817,470.023376 1422.711304,468.359802 1417.196411,466.950867 
	C1417.196411,482.542023 1417.196411,497.658142 1417.196411,513.121033 
	C1426.145142,514.434509 1434.927490,515.936707 1443.764160,516.973572 
	C1459.323608,518.798950 1474.884399,521.115906 1490.505005,521.757507 
	C1503.285278,522.282349 1516.181396,521.000183 1528.975830,519.921631 
	C1546.673706,518.429626 1563.400391,513.493286 1578.604126,504.030334 
	C1591.530762,495.984711 1601.176147,485.291199 1606.096313,470.587158 
	C1609.575073,460.191254 1611.639282,449.713226 1610.014893,438.717834 
	C1609.090942,432.462830 1609.168335,425.916412 1607.301392,419.970184 
	C1600.890015,399.549896 1585.533325,387.872284 1566.558594,379.980469 
	C1548.929199,372.648254 1530.151855,369.614502 1511.807739,364.928406 
	C1502.040161,362.433197 1492.241333,359.773926 1482.857788,356.149872 
	C1474.944946,353.093842 1468.086792,348.232300 1466.959473,338.477112 
	C1465.765259,328.144073 1474.661987,320.347748 1482.829590,316.990173 
	C1493.657593,312.539032 1504.983398,310.640381 1516.622559,311.054382 
	C1528.463379,311.475586 1540.317749,312.019440 1552.110718,313.108887 
	C1560.484863,313.882477 1568.760132,315.696381 1577.092651,316.959717 
	C1582.939941,317.846222 1588.809326,318.587433 1594.884644,319.423187 
	C1594.884644,303.770416 1594.884644,289.143219 1594.884644,274.097046 
	C1591.090454,273.394745 1587.322266,272.697296 1582.668701,271.997467 
z"/>
<path fill="#FFFFFF" opacity="1.000000" stroke="none" 
	d="
M786.531372,1.000002 
	C783.976990,10.109103 781.143860,19.286636 777.890686,28.312782 
	C771.535889,45.944553 764.921448,63.482586 758.459839,81.076057 
	C748.410706,108.437050 738.376587,135.803604 728.377747,163.182999 
	C715.356445,198.838226 702.375916,234.508301 689.377869,270.171997 
	C676.379761,305.835815 663.381653,341.499603 650.383545,377.163422 
	C637.385437,412.827240 624.207581,448.427185 611.499756,484.194122 
	C607.725586,494.816528 603.412109,504.631958 593.519958,511.001373 
	C587.682922,514.759827 581.375671,516.711914 574.224976,517.056030 
	C574.818970,516.233643 575.200806,515.704956 575.709961,515.000000 
	C511.649902,515.000000 447.827789,514.937073 384.006012,515.053162 
	C371.271149,515.076355 356.679077,506.076263 351.862030,492.190582 
	C340.577148,459.660614 328.656281,427.351135 316.969116,394.960999 
	C314.359558,387.728760 311.679962,380.521271 308.955780,373.331512 
	C308.599976,372.392487 307.783386,371.628082 306.771301,370.209747 
	C300.138245,388.343262 293.785645,405.739899 287.411591,423.128662 
	C277.765869,449.442505 268.080383,475.741791 258.456970,502.063782 
	C245.808167,536.660828 233.176834,571.264343 220.588104,605.883240 
	C211.338120,631.320618 202.175964,656.789917 192.954025,682.237549 
	C191.779236,685.479248 190.085846,687.154236 185.927155,687.140381 
	C124.597740,686.936584 63.267418,687.000000 1.468657,687.000000 
	C1.000000,683.638733 1.000000,680.277405 1.389793,676.454895 
	C2.512114,675.038574 3.537938,674.191162 3.934111,673.112549 
	C12.989035,648.459717 21.977530,623.782471 30.973730,599.108093 
	C43.975666,563.447021 56.978489,527.786255 69.972115,492.122162 
	C79.292328,466.540649 88.627121,440.964355 97.903557,415.366974 
	C111.490875,377.874146 125.022186,340.360992 138.595245,302.863007 
	C151.403778,267.477142 164.047287,232.029831 177.142441,196.750244 
	C183.011688,180.937927 194.345078,173.175613 211.369461,173.105728 
	C275.530212,172.842346 339.693085,173.121140 403.854095,172.896530 
	C416.495483,172.852264 425.078949,178.163605 429.974609,189.448547 
	C433.474945,197.517059 436.421783,205.828781 439.521790,214.067276 
	C448.376038,237.598068 457.179291,261.148041 466.009003,284.688049 
	C470.190704,295.836395 474.387085,306.979187 478.965576,319.158722 
	C485.106293,302.326111 490.832550,286.601471 496.578766,270.884064 
	C510.216766,233.580429 523.875244,196.284256 537.504517,158.977417 
	C550.144409,124.378708 562.771057,89.775124 575.376404,55.163799 
	C581.947754,37.120193 588.460693,19.055279 595.000000,0.999998 
	C658.687561,1.000000 722.375122,1.000000 786.531372,1.000002 
z"/>
<path fill="#000000" opacity="1.000000" stroke="none" 
	d="
M594.531372,0.999998 
	C588.460693,19.055279 581.947754,37.120193 575.376404,55.163799 
	C562.771057,89.775124 550.144409,124.378708 537.504517,158.977417 
	C523.875244,196.284256 510.216766,233.580429 496.578766,270.884064 
	C490.832550,286.601471 485.106293,302.326111 478.965576,319.158722 
	C474.387085,306.979187 470.190704,295.836395 466.009003,284.688049 
	C457.179291,261.148041 448.376038,237.598068 439.521790,214.067276 
	C436.421783,205.828781 433.474945,197.517059 429.974609,189.448547 
	C425.078949,178.163605 416.495483,172.852264 403.854095,172.896530 
	C339.693085,173.121140 275.530212,172.842346 211.369461,173.105728 
	C194.345078,173.175613 183.011688,180.937927 177.142441,196.750244 
	C164.047287,232.029831 151.403778,267.477142 138.595245,302.863007 
	C125.022186,340.360992 111.490875,377.874146 97.903557,415.366974 
	C88.627121,440.964355 79.292328,466.540649 69.972115,492.122162 
	C56.978489,527.786255 43.975666,563.447021 30.973730,599.108093 
	C21.977530,623.782471 12.989035,648.459717 3.934111,673.112549 
	C3.537938,674.191162 2.512114,675.038574 1.389793,675.996826 
	C1.000000,451.077545 1.000000,226.155106 1.000000,1.000000 
	C198.687500,1.000000 396.375092,1.000000 594.531372,0.999998 
z"/>
<path fill="#FFFFFF" opacity="1.000000" stroke="none" 
	d="
M2401.000000,603.531372 
	C2396.477051,605.653259 2391.887695,607.146240 2387.443359,608.989380 
	C2373.391357,614.817383 2359.393555,620.776245 2344.991455,626.846069 
	C2344.991455,591.117126 2344.991455,555.715088 2344.991455,520.855713 
	C2333.327393,521.582092 2321.937500,522.228943 2310.557373,523.013000 
	C2286.902100,524.642639 2264.093018,519.986267 2242.082275,512.197510 
	C2232.592529,508.839447 2223.631348,502.968597 2215.620117,496.714996 
	C2206.083252,489.270844 2198.420410,479.744781 2192.435547,468.993561 
	C2183.643066,453.199493 2177.518311,436.564850 2176.037842,418.464294 
	C2175.112793,407.154633 2173.603027,395.746490 2174.236816,384.488464 
	C2175.310547,365.423798 2179.131836,346.806671 2187.886719,329.462311 
	C2199.903809,305.655273 2218.437744,289.471985 2243.251221,279.867126 
	C2258.922119,273.801056 2274.806396,269.254852 2291.688232,269.032013 
	C2304.354980,268.864777 2317.031738,268.746582 2329.692627,269.065491 
	C2345.535156,269.464600 2361.369629,270.258057 2377.199951,271.032593 
	C2384.886963,271.408691 2392.556885,272.129150 2400.617188,272.346863 
	C2401.000000,382.354218 2401.000000,492.708466 2401.000000,603.531372 
M2345.000000,319.541748 
	C2345.000000,316.770386 2345.000000,313.998993 2345.000000,310.035095 
	C2325.803955,311.044220 2307.140869,311.382416 2288.628174,313.227295 
	C2276.523438,314.433594 2265.403076,319.692291 2255.950439,327.605560 
	C2238.984863,341.808685 2232.443359,361.153229 2231.244629,382.271240 
	C2230.559082,394.344604 2231.530273,406.669739 2233.205078,418.679352 
	C2235.281982,433.571716 2241.203857,447.205078 2251.815918,458.253754 
	C2266.352539,473.388672 2285.240234,478.227539 2305.212158,478.764008 
	C2316.584473,479.069458 2328.009766,476.833710 2339.433838,476.090271 
	C2343.432373,475.830017 2345.118896,474.917114 2345.104004,470.406219 
	C2344.938721,420.449127 2345.000000,370.491272 2345.000000,319.541748 
z"/>
<path fill="#FFFFFF" opacity="1.000000" stroke="none" 
	d="
M1046.039307,517.000000 
	C1037.631470,518.658508 1033.588135,514.997559 1029.791382,508.039673 
	C1015.627014,482.082764 1000.678772,456.552979 985.981750,430.887543 
	C971.682129,405.916107 957.358276,380.958435 942.993347,356.024536 
	C926.699829,327.743256 910.343994,299.497864 894.032593,271.226868 
	C892.802979,269.095551 891.712769,266.883789 890.557800,264.709381 
	C890.140198,264.835541 889.722534,264.961670 889.304871,265.087830 
	C889.304871,348.886688 889.304871,432.685547 889.304871,516.741577 
	C871.653564,516.741577 854.581543,516.741577 837.254089,516.741577 
	C837.254089,408.309845 837.254089,299.905029 837.254089,191.000000 
	C843.223206,191.000000 849.166504,191.000000 855.109863,191.000000 
	C871.776489,191.000000 888.443665,191.073578 905.109070,190.929199 
	C907.961914,190.904495 909.436401,191.816345 910.859131,194.283325 
	C923.386841,216.006378 936.125427,237.607666 948.702209,259.302673 
	C959.101746,277.242157 969.300537,295.298065 979.708862,313.232452 
	C990.923706,332.556549 1002.333557,351.767395 1013.555481,371.087433 
	C1022.597351,386.654297 1031.499023,402.302795 1040.436890,417.929871 
	C1044.345581,424.763885 1048.162720,431.650482 1052.103027,438.466064 
	C1052.517944,439.183838 1053.485718,439.582062 1054.813965,440.602539 
	C1054.813965,357.067505 1054.813965,274.342194 1054.813965,191.308701 
	C1072.910645,191.308701 1090.650146,191.308701 1108.695557,191.308701 
	C1108.695557,299.589050 1108.695557,407.994049 1108.695557,517.000000 
	C1088.052856,517.000000 1067.292603,517.000000 1046.039307,517.000000 
z"/>
<path fill="#FFFFFF" opacity="1.000000" stroke="none" 
	d="
M1867.000000,321.000000 
	C1867.000000,385.474152 1867.000000,449.448273 1867.000000,513.920288 
	C1853.054565,516.291565 1839.281616,519.016418 1825.392212,520.865967 
	C1815.477783,522.186157 1805.415405,522.591125 1795.403198,522.926697 
	C1785.424683,523.261169 1775.417847,523.259827 1765.438232,522.942688 
	C1747.838379,522.383545 1730.880859,518.756592 1714.462036,512.190552 
	C1700.287109,506.521881 1687.647705,498.560699 1676.707520,488.089630 
	C1660.135742,472.228485 1650.153320,452.616302 1644.954468,430.360260 
	C1641.192017,414.253601 1641.207153,397.877380 1642.238892,381.659576 
	C1643.397461,363.444977 1647.749146,345.715515 1655.973633,329.163544 
	C1661.431885,318.178375 1668.280762,308.055267 1677.070923,299.617401 
	C1692.395386,284.906952 1710.690674,275.194672 1731.599976,271.132233 
	C1740.687500,269.366638 1750.027588,268.457489 1759.287476,268.127716 
	C1773.105225,267.635590 1786.954102,267.927216 1800.788208,268.049957 
	C1804.346436,268.081512 1807.899048,268.728729 1811.855591,269.134216 
	C1811.855591,236.406113 1811.855591,203.984421 1811.855591,171.282257 
	C1830.296021,171.282257 1848.366577,171.282257 1867.000000,171.282257 
	C1867.000000,220.986511 1867.000000,270.743256 1867.000000,321.000000 
M1736.421997,470.038391 
	C1746.174683,476.341217 1757.271851,479.070312 1768.476074,479.768433 
	C1783.457764,480.701843 1798.541626,479.999298 1813.791260,479.999298 
	C1813.791260,423.883240 1813.791260,369.123169 1813.791260,314.053955 
	C1805.665161,313.029083 1797.638550,311.317474 1789.580322,311.152649 
	C1774.856812,310.851501 1760.107422,310.077942 1745.634521,314.853088 
	C1730.190918,319.948547 1718.042969,328.562317 1709.981323,342.856018 
	C1700.756348,359.212494 1698.805298,377.253479 1698.218628,395.401581 
	C1697.942871,403.933441 1699.374512,412.670776 1701.123657,421.088257 
	C1705.523804,442.262024 1716.820923,458.853912 1736.421997,470.038391 
z"/>
<path fill="#FFFFFF" opacity="1.000000" stroke="none" 
	d="
M1256.002075,269.000000 
	C1270.001221,269.667236 1283.569214,269.709900 1296.983521,271.167664 
	C1312.060547,272.806152 1326.728271,276.418030 1339.766113,284.941132 
	C1352.935181,293.550049 1361.396606,305.722473 1364.741455,320.689484 
	C1367.354736,332.381683 1368.718994,344.579742 1368.817505,356.567993 
	C1369.243530,408.386017 1369.000000,460.209534 1369.000000,512.031067 
	C1369.000000,513.840881 1369.000000,515.650635 1369.000000,517.641907 
	C1353.145508,520.088806 1337.406738,518.504395 1321.736938,519.021851 
	C1304.399292,519.594360 1287.020142,519.752075 1269.744019,521.143860 
	C1245.023315,523.135437 1220.759033,521.268799 1197.263550,513.522339 
	C1174.179443,505.911530 1159.240967,489.748535 1154.213989,465.898468 
	C1150.416870,447.883392 1149.823730,429.538330 1156.010864,411.667664 
	C1161.003418,397.247314 1170.452515,386.535889 1183.545654,378.838654 
	C1197.104004,370.867920 1211.852905,367.054657 1227.327759,364.876343 
	C1247.196411,362.079559 1267.123901,361.757507 1287.084839,362.093475 
	C1295.894409,362.241699 1304.687012,363.404053 1313.954102,364.143250 
	C1314.091187,351.527222 1314.404053,339.267426 1309.939331,327.590210 
	C1306.716553,319.161407 1299.264526,316.034027 1291.202148,314.000702 
	C1274.328369,309.745178 1257.099365,310.684692 1240.014404,311.190155 
	C1226.986816,311.575592 1213.969482,313.368286 1201.024048,315.104980 
	C1192.081299,316.304718 1183.271484,318.489960 1174.396362,320.204742 
	C1172.166626,320.635559 1169.914551,320.950775 1167.310303,321.378601 
	C1167.310303,306.845490 1167.310303,292.758850 1167.310303,278.245911 
	C1196.270874,272.395905 1225.744995,269.400208 1256.002075,269.000000 
M1205.000000,440.501953 
	C1204.878296,458.077789 1212.976562,469.384674 1228.074097,475.629364 
	C1238.924194,480.117249 1250.364990,481.525482 1261.807739,481.824982 
	C1276.538696,482.210602 1291.304443,481.388184 1306.051636,480.961151 
	C1309.702393,480.855408 1313.339111,480.267517 1316.805542,479.919067 
	C1316.805542,453.616455 1316.805542,428.002258 1316.805542,402.090149 
	C1304.003052,401.386932 1291.384766,400.497742 1278.750977,400.088135 
	C1273.016602,399.902191 1267.233521,400.484589 1261.504150,401.042664 
	C1252.921143,401.878754 1244.156860,402.143219 1235.841064,404.172791 
	C1216.295776,408.943085 1205.033447,419.509094 1205.000000,440.501953 
z"/>
<path fill="#FFFFFF" opacity="1.000000" stroke="none" 
	d="
M1990.054321,270.000000 
	C1999.289062,269.666656 2008.039307,269.128448 2016.794189,269.041840 
	C2036.182251,268.850037 2055.673340,269.371460 2074.460693,274.208252 
	C2101.690430,281.218567 2118.969971,293.806824 2125.837158,323.192352 
	C2127.897705,332.009491 2128.819580,341.280090 2128.865234,350.350006 
	C2129.137451,404.347870 2129.000000,458.347809 2129.000000,512.347046 
	C2129.000000,514.143860 2129.000000,515.940735 2129.000000,519.000000 
	C2119.509033,519.000000 2110.462158,518.887573 2101.419189,519.024597 
	C2085.165527,519.270874 2068.909424,519.520325 2052.663330,520.044739 
	C2038.651367,520.496948 2024.626099,522.203857 2010.653198,521.788818 
	C1991.375610,521.216125 1972.103882,519.712708 1953.872437,512.080505 
	C1933.414795,503.516296 1920.110352,488.670197 1915.244995,467.242249 
	C1912.842041,456.658905 1911.925781,445.462708 1912.241699,434.599213 
	C1912.769775,416.439789 1918.701050,399.884186 1932.435181,387.179932 
	C1943.195679,377.226349 1956.281006,371.051331 1970.458984,368.216980 
	C1983.662476,365.577362 1997.176880,364.245270 2010.620239,363.129211 
	C2022.153931,362.171692 2033.785400,361.968140 2045.364868,362.115021 
	C2054.705078,362.233490 2064.031982,363.372498 2073.866211,364.095612 
	C2073.999756,351.692657 2075.318604,339.302704 2070.718994,327.575623 
	C2067.582275,319.578094 2060.297363,315.793823 2052.422363,314.113190 
	C2034.278076,310.240875 2015.911499,309.994324 1997.476929,311.952332 
	C1989.164917,312.835175 1980.754028,312.924133 1972.490234,314.094238 
	C1960.006470,315.861786 1947.616699,318.287720 1935.175903,320.367737 
	C1932.635742,320.792450 1930.046875,320.924896 1927.223633,321.218811 
	C1927.223633,306.750214 1927.223633,292.798492 1927.223633,277.375549 
	C1947.776367,274.944244 1968.674194,272.472107 1990.054321,270.000000 
M1999.836914,403.029266 
	C1996.623535,404.023895 1993.384888,404.944000 1990.202148,406.028656 
	C1983.573608,408.287537 1977.486206,411.332306 1972.964478,417.021912 
	C1966.455200,425.212341 1965.078613,434.419647 1965.872314,444.613770 
	C1966.941528,458.348389 1973.347046,467.928711 1985.510864,474.136108 
	C1997.255981,480.129852 2010.048218,481.342499 2022.747070,481.802887 
	C2037.124268,482.324127 2051.557861,481.381805 2065.963623,480.968536 
	C2069.951172,480.854187 2073.927734,480.358093 2077.686768,480.055054 
	C2077.686768,453.579468 2077.686768,427.847076 2077.686768,402.073395 
	C2064.556152,401.371185 2051.728027,400.028931 2038.918335,400.185181 
	C2026.172363,400.340637 2013.444824,402.001312 1999.836914,403.029266 
z"/>
<path fill="#FFFFFF" opacity="1.000000" stroke="none" 
	d="
M1583.111328,271.998657 
	C1587.322266,272.697296 1591.090454,273.394745 1594.884644,274.097046 
	C1594.884644,289.143219 1594.884644,303.770416 1594.884644,319.423187 
	C1588.809326,318.587433 1582.939941,317.846222 1577.092651,316.959717 
	C1568.760132,315.696381 1560.484863,313.882477 1552.110718,313.108887 
	C1540.317749,312.019440 1528.463379,311.475586 1516.622559,311.054382 
	C1504.983398,310.640381 1493.657593,312.539032 1482.829590,316.990173 
	C1474.661987,320.347748 1465.765259,328.144073 1466.959473,338.477112 
	C1468.086792,348.232300 1474.944946,353.093842 1482.857788,356.149872 
	C1492.241333,359.773926 1502.040161,362.433197 1511.807739,364.928406 
	C1530.151855,369.614502 1548.929199,372.648254 1566.558594,379.980469 
	C1585.533325,387.872284 1600.890015,399.549896 1607.301392,419.970184 
	C1609.168335,425.916412 1609.090942,432.462830 1610.014893,438.717834 
	C1611.639282,449.713226 1609.575073,460.191254 1606.096313,470.587158 
	C1601.176147,485.291199 1591.530762,495.984711 1578.604126,504.030334 
	C1563.400391,513.493286 1546.673706,518.429626 1528.975830,519.921631 
	C1516.181396,521.000183 1503.285278,522.282349 1490.505005,521.757507 
	C1474.884399,521.115906 1459.323608,518.798950 1443.764160,516.973572 
	C1434.927490,515.936707 1426.145142,514.434509 1417.196411,513.121033 
	C1417.196411,497.658142 1417.196411,482.542023 1417.196411,466.950867 
	C1422.711304,468.359802 1428.012817,470.023376 1433.435791,471.035950 
	C1445.039307,473.202545 1456.666382,475.324585 1468.359497,476.903198 
	C1476.959351,478.064178 1485.697754,479.060669 1494.341797,478.840942 
	C1509.907959,478.445221 1525.645752,477.589386 1540.042725,470.857391 
	C1550.974487,465.745789 1560.302979,457.772675 1555.996826,442.106384 
	C1554.098389,435.199646 1549.431519,430.320099 1543.128662,427.789795 
	C1533.055176,423.745667 1522.694702,420.355927 1512.307861,417.170502 
	C1502.050415,414.024658 1491.634399,411.380157 1481.243164,408.689362 
	C1468.783447,405.462952 1456.612061,401.371246 1445.544067,394.792053 
	C1426.322632,383.366119 1414.704834,367.166534 1413.856567,343.916840 
	C1413.376953,330.769714 1414.769531,318.344696 1420.838501,306.506348 
	C1428.338135,291.877594 1440.360107,282.333374 1455.072510,276.121368 
	C1467.761230,270.763763 1481.054321,267.317780 1494.977417,266.997681 
	C1509.389526,266.666351 1523.854736,265.418488 1538.198975,266.252594 
	C1553.083252,267.118164 1567.850342,269.998352 1583.111328,271.998657 
z"/>
<path fill="#000000" opacity="1.000000" stroke="none" 
	d="
M2345.000000,320.037689 
	C2345.000000,370.491272 2344.938721,420.449127 2345.104004,470.406219 
	C2345.118896,474.917114 2343.432373,475.830017 2339.433838,476.090271 
	C2328.009766,476.833710 2316.584473,479.069458 2305.212158,478.764008 
	C2285.240234,478.227539 2266.352539,473.388672 2251.815918,458.253754 
	C2241.203857,447.205078 2235.281982,433.571716 2233.205078,418.679352 
	C2231.530273,406.669739 2230.559082,394.344604 2231.244629,382.271240 
	C2232.443359,361.153229 2238.984863,341.808685 2255.950439,327.605560 
	C2265.403076,319.692291 2276.523438,314.433594 2288.628174,313.227295 
	C2307.140869,311.382416 2325.803955,311.044220 2345.000000,310.035095 
	C2345.000000,313.998993 2345.000000,316.770386 2345.000000,320.037689 
z"/>
<path fill="#000000" opacity="1.000000" stroke="none" 
	d="
M1736.041748,470.003876 
	C1716.820923,458.853912 1705.523804,442.262024 1701.123657,421.088257 
	C1699.374512,412.670776 1697.942871,403.933441 1698.218628,395.401581 
	C1698.805298,377.253479 1700.756348,359.212494 1709.981323,342.856018 
	C1718.042969,328.562317 1730.190918,319.948547 1745.634521,314.853088 
	C1760.107422,310.077942 1774.856812,310.851501 1789.580322,311.152649 
	C1797.638550,311.317474 1805.665161,313.029083 1813.791260,314.053955 
	C1813.791260,369.123169 1813.791260,423.883240 1813.791260,479.999298 
	C1798.541626,479.999298 1783.457764,480.701843 1768.476074,479.768433 
	C1757.271851,479.070312 1746.174683,476.341217 1736.041748,470.003876 
z"/>
<path fill="#000000" opacity="1.000000" stroke="none" 
	d="
M1205.000000,440.028412 
	C1205.033447,419.509094 1216.295776,408.943085 1235.841064,404.172791 
	C1244.156860,402.143219 1252.921143,401.878754 1261.504150,401.042664 
	C1267.233521,400.484589 1273.016602,399.902191 1278.750977,400.088135 
	C1291.384766,400.497742 1304.003052,401.386932 1316.805542,402.090149 
	C1316.805542,428.002258 1316.805542,453.616455 1316.805542,479.919067 
	C1313.339111,480.267517 1309.702393,480.855408 1306.051636,480.961151 
	C1291.304443,481.388184 1276.538696,482.210602 1261.807739,481.824982 
	C1250.364990,481.525482 1238.924194,480.117249 1228.074097,475.629364 
	C1212.976562,469.384674 1204.878296,458.077789 1205.000000,440.028412 
z"/>
<path fill="#000000" opacity="1.000000" stroke="none" 
	d="
M2000.273071,403.015625 
	C2013.444824,402.001312 2026.172363,400.340637 2038.918335,400.185181 
	C2051.728027,400.028931 2064.556152,401.371185 2077.686768,402.073395 
	C2077.686768,427.847076 2077.686768,453.579468 2077.686768,480.055054 
	C2073.927734,480.358093 2069.951172,480.854187 2065.963623,480.968536 
	C2051.557861,481.381805 2037.124268,482.324127 2022.747070,481.802887 
	C2010.048218,481.342499 1997.255981,480.129852 1985.510864,474.136108 
	C1973.347046,467.928711 1966.941528,458.348389 1965.872314,444.613770 
	C1965.078613,434.419647 1966.455200,425.212341 1972.964478,417.021912 
	C1977.486206,411.332306 1983.573608,408.287537 1990.202148,406.028656 
	C1993.384888,404.944000 1996.623535,404.023895 2000.273071,403.015625 
z"/>
</svg>